<mxfile host="app.diagrams.net" agent="Mozilla/5.0 (X11; Ubuntu; Linux x86_64; rv:131.0) Gecko/20100101 Firefox/131.0" version="25.0.3">
  <diagram name="Page-1" id="hV8_vWimdpn24ltupnvK">
    <mxGraphModel dx="1323" dy="860" grid="1" gridSize="10" guides="1" tooltips="1" connect="1" arrows="1" fold="1" page="1" pageScale="1" pageWidth="827" pageHeight="1169" math="0" shadow="0">
      <root>
        <mxCell id="0" />
        <mxCell id="1" parent="0" />
        <mxCell id="OYRed6BsWh4tqV8TMah2-53" value="" style="rounded=0;whiteSpace=wrap;html=1;strokeColor=none;" parent="1" vertex="1">
          <mxGeometry x="80" y="910" width="800" height="335" as="geometry" />
        </mxCell>
        <mxCell id="Qa07ZEY8zx5-E_0PlGd2-5" style="edgeStyle=orthogonalEdgeStyle;rounded=0;orthogonalLoop=1;jettySize=auto;html=1;entryX=0.5;entryY=0;entryDx=0;entryDy=0;" parent="1" source="Qa07ZEY8zx5-E_0PlGd2-2" target="Qa07ZEY8zx5-E_0PlGd2-4" edge="1">
          <mxGeometry relative="1" as="geometry" />
        </mxCell>
        <mxCell id="R3Bvoctj_jdyim1rGo82-14" style="edgeStyle=orthogonalEdgeStyle;rounded=0;orthogonalLoop=1;jettySize=auto;html=1;entryX=0.5;entryY=0;entryDx=0;entryDy=0;curved=1;" parent="1" source="Qa07ZEY8zx5-E_0PlGd2-2" target="Qa07ZEY8zx5-E_0PlGd2-2" edge="1">
          <mxGeometry relative="1" as="geometry">
            <mxPoint x="470" y="180" as="targetPoint" />
            <Array as="points">
              <mxPoint x="450" y="220" />
              <mxPoint x="450" y="180" />
              <mxPoint x="520" y="180" />
            </Array>
          </mxGeometry>
        </mxCell>
        <mxCell id="Qa07ZEY8zx5-E_0PlGd2-2" value="&lt;font style=&quot;font-size: 18px;&quot;&gt;Idle&lt;/font&gt;" style="ellipse;whiteSpace=wrap;html=1;" parent="1" vertex="1">
          <mxGeometry x="480" y="200" width="80" height="40" as="geometry" />
        </mxCell>
        <mxCell id="Qa07ZEY8zx5-E_0PlGd2-3" value="&lt;h1 style=&quot;margin-top: 0px;&quot;&gt;Conditions&lt;/h1&gt;&lt;ul&gt;&lt;li&gt;C&lt;sub&gt;0&lt;/sub&gt;: T&lt;sub&gt;min&lt;/sub&gt;≤T&lt;sub&gt;bat&lt;/sub&gt;≤T&lt;sub&gt;max&lt;/sub&gt;&lt;/li&gt;&lt;li&gt;C&lt;sub&gt;1&lt;/sub&gt;: V&amp;lt;4.2&lt;i&gt;V&lt;/i&gt;&lt;/li&gt;&lt;li&gt;C&lt;sub&gt;2&lt;/sub&gt;: V&amp;lt;V&lt;sub&gt;cutoff&lt;/sub&gt;&lt;/li&gt;&lt;li&gt;C&lt;sub&gt;3&lt;/sub&gt;: V&amp;gt;V&lt;sub&gt;cutoff&lt;/sub&gt;&lt;/li&gt;&lt;li&gt;C&lt;sub&gt;4&lt;/sub&gt;: V&lt;font&gt;≥&lt;/font&gt;V&lt;sub&gt;preset&lt;/sub&gt;&lt;/li&gt;&lt;li&gt;C&lt;sub&gt;5&lt;/sub&gt;: t&lt;sub&gt;max&lt;/sub&gt;≤t&lt;sub&gt;preset&lt;/sub&gt;&lt;/li&gt;&lt;li&gt;C&lt;sub&gt;6&lt;/sub&gt;: I&amp;lt;I&lt;sub&gt;end&lt;/sub&gt;&lt;/li&gt;&lt;li&gt;C&lt;sub&gt;7&lt;/sub&gt;: V&amp;lt;V&lt;sub&gt;recharge&lt;/sub&gt;&lt;/li&gt;&lt;li&gt;C&lt;sub&gt;8&lt;/sub&gt;: counter&lt;font&gt;≥64&lt;/font&gt;&lt;/li&gt;&lt;li&gt;C&lt;sub&gt;S&lt;/sub&gt;: rstz &amp;amp;&amp;amp; en &amp;amp;&amp;amp; V&lt;sub&gt;tok&lt;/sub&gt; &amp;amp;&amp;amp; !se&lt;br&gt;&lt;/li&gt;&lt;/ul&gt;" style="text;html=1;whiteSpace=wrap;overflow=hidden;rounded=0;strokeColor=default;fillColor=default;" parent="1" vertex="1">
          <mxGeometry x="40" y="155" width="210" height="245" as="geometry" />
        </mxCell>
        <mxCell id="Qa07ZEY8zx5-E_0PlGd2-15" style="edgeStyle=orthogonalEdgeStyle;rounded=0;orthogonalLoop=1;jettySize=auto;html=1;exitX=1;exitY=1;exitDx=0;exitDy=0;entryX=0.5;entryY=0;entryDx=0;entryDy=0;curved=1;" parent="1" source="Qa07ZEY8zx5-E_0PlGd2-4" target="Qa07ZEY8zx5-E_0PlGd2-7" edge="1">
          <mxGeometry relative="1" as="geometry">
            <Array as="points">
              <mxPoint x="600" y="314" />
            </Array>
          </mxGeometry>
        </mxCell>
        <mxCell id="Qa07ZEY8zx5-E_0PlGd2-16" style="edgeStyle=orthogonalEdgeStyle;rounded=0;orthogonalLoop=1;jettySize=auto;html=1;entryX=0;entryY=0.5;entryDx=0;entryDy=0;startArrow=classic;startFill=1;endArrow=none;endFill=0;curved=1;" parent="1" source="Qa07ZEY8zx5-E_0PlGd2-4" target="Qa07ZEY8zx5-E_0PlGd2-7" edge="1">
          <mxGeometry relative="1" as="geometry" />
        </mxCell>
        <mxCell id="Qa07ZEY8zx5-E_0PlGd2-23" style="edgeStyle=orthogonalEdgeStyle;rounded=0;orthogonalLoop=1;jettySize=auto;html=1;exitX=0;exitY=1;exitDx=0;exitDy=0;curved=1;entryX=0.5;entryY=0;entryDx=0;entryDy=0;" parent="1" source="Qa07ZEY8zx5-E_0PlGd2-4" target="Qa07ZEY8zx5-E_0PlGd2-14" edge="1">
          <mxGeometry relative="1" as="geometry">
            <Array as="points">
              <mxPoint x="492" y="400" />
              <mxPoint x="420" y="400" />
            </Array>
            <mxPoint x="470" y="460" as="targetPoint" />
          </mxGeometry>
        </mxCell>
        <mxCell id="Qa07ZEY8zx5-E_0PlGd2-24" style="edgeStyle=orthogonalEdgeStyle;rounded=0;orthogonalLoop=1;jettySize=auto;html=1;entryX=0.5;entryY=0;entryDx=0;entryDy=0;curved=1;" parent="1" source="Qa07ZEY8zx5-E_0PlGd2-4" target="Qa07ZEY8zx5-E_0PlGd2-19" edge="1">
          <mxGeometry relative="1" as="geometry" />
        </mxCell>
        <mxCell id="Qa07ZEY8zx5-E_0PlGd2-4" value="&lt;font style=&quot;font-size: 18px;&quot;&gt;Start&lt;/font&gt;" style="ellipse;whiteSpace=wrap;html=1;" parent="1" vertex="1">
          <mxGeometry x="480" y="280" width="80" height="40" as="geometry" />
        </mxCell>
        <mxCell id="Qa07ZEY8zx5-E_0PlGd2-6" value="&lt;div&gt;C&lt;sub&gt;0&lt;/sub&gt;=1&lt;/div&gt;&lt;div&gt;C&lt;sub&gt;1&lt;/sub&gt;=1&lt;/div&gt;&lt;div&gt;C&lt;sub&gt;2&lt;/sub&gt;=1&lt;br&gt;&lt;/div&gt;" style="text;html=1;align=center;verticalAlign=middle;whiteSpace=wrap;rounded=0;" parent="1" vertex="1">
          <mxGeometry x="320" y="310" width="30" height="50" as="geometry" />
        </mxCell>
        <mxCell id="Qa07ZEY8zx5-E_0PlGd2-7" value="&lt;font style=&quot;font-size: 18px;&quot;&gt;Wait&lt;/font&gt;" style="whiteSpace=wrap;html=1;rounded=0;" parent="1" vertex="1">
          <mxGeometry x="560" y="360" width="80" height="40" as="geometry" />
        </mxCell>
        <mxCell id="Qa07ZEY8zx5-E_0PlGd2-26" style="edgeStyle=orthogonalEdgeStyle;rounded=0;orthogonalLoop=1;jettySize=auto;html=1;entryX=0;entryY=0.5;entryDx=0;entryDy=0;curved=1;" parent="1" source="Qa07ZEY8zx5-E_0PlGd2-14" target="FENF5lnJM81x7ZP91x9k-3" edge="1">
          <mxGeometry relative="1" as="geometry" />
        </mxCell>
        <mxCell id="R3Bvoctj_jdyim1rGo82-25" style="edgeStyle=orthogonalEdgeStyle;rounded=0;orthogonalLoop=1;jettySize=auto;html=1;entryX=0.5;entryY=1;entryDx=0;entryDy=0;curved=1;" parent="1" source="Qa07ZEY8zx5-E_0PlGd2-14" target="Qa07ZEY8zx5-E_0PlGd2-4" edge="1">
          <mxGeometry relative="1" as="geometry">
            <Array as="points">
              <mxPoint x="520" y="500" />
            </Array>
          </mxGeometry>
        </mxCell>
        <mxCell id="Qa07ZEY8zx5-E_0PlGd2-14" value="&lt;font style=&quot;font-size: 18px;&quot;&gt;CC Mode&lt;/font&gt;" style="whiteSpace=wrap;html=1;rounded=0;" parent="1" vertex="1">
          <mxGeometry x="380" y="480" width="80" height="40" as="geometry" />
        </mxCell>
        <mxCell id="7gil-hiqsTWwfiF-RkSV-2" style="edgeStyle=orthogonalEdgeStyle;rounded=0;orthogonalLoop=1;jettySize=auto;html=1;entryX=1;entryY=0.5;entryDx=0;entryDy=0;curved=1;" parent="1" source="Qa07ZEY8zx5-E_0PlGd2-17" target="Qa07ZEY8zx5-E_0PlGd2-2" edge="1">
          <mxGeometry relative="1" as="geometry">
            <Array as="points">
              <mxPoint x="720" y="220" />
            </Array>
          </mxGeometry>
        </mxCell>
        <mxCell id="Qa07ZEY8zx5-E_0PlGd2-17" value="&lt;font style=&quot;font-size: 18px;&quot;&gt;End&lt;/font&gt;" style="ellipse;whiteSpace=wrap;html=1;" parent="1" vertex="1">
          <mxGeometry x="680" y="360" width="80" height="40" as="geometry" />
        </mxCell>
        <mxCell id="Qa07ZEY8zx5-E_0PlGd2-25" style="edgeStyle=orthogonalEdgeStyle;rounded=0;orthogonalLoop=1;jettySize=auto;html=1;entryX=0;entryY=0.5;entryDx=0;entryDy=0;curved=1;" parent="1" source="Qa07ZEY8zx5-E_0PlGd2-19" target="Qa07ZEY8zx5-E_0PlGd2-14" edge="1">
          <mxGeometry relative="1" as="geometry">
            <Array as="points">
              <mxPoint x="360" y="500" />
            </Array>
          </mxGeometry>
        </mxCell>
        <mxCell id="R3Bvoctj_jdyim1rGo82-24" style="edgeStyle=orthogonalEdgeStyle;rounded=0;orthogonalLoop=1;jettySize=auto;html=1;entryX=0.5;entryY=1;entryDx=0;entryDy=0;curved=1;" parent="1" source="Qa07ZEY8zx5-E_0PlGd2-19" target="Qa07ZEY8zx5-E_0PlGd2-4" edge="1">
          <mxGeometry relative="1" as="geometry" />
        </mxCell>
        <mxCell id="Qa07ZEY8zx5-E_0PlGd2-19" value="&lt;font style=&quot;font-size: 18px;&quot;&gt;TC Mode&lt;/font&gt;" style="whiteSpace=wrap;html=1;rounded=0;" parent="1" vertex="1">
          <mxGeometry x="320" y="360" width="80" height="40" as="geometry" />
        </mxCell>
        <mxCell id="Qa07ZEY8zx5-E_0PlGd2-27" style="edgeStyle=orthogonalEdgeStyle;rounded=0;orthogonalLoop=1;jettySize=auto;html=1;curved=1;entryX=0.5;entryY=1;entryDx=0;entryDy=0;" parent="1" source="Qa07ZEY8zx5-E_0PlGd2-22" target="Qa07ZEY8zx5-E_0PlGd2-17" edge="1">
          <mxGeometry relative="1" as="geometry">
            <Array as="points">
              <mxPoint x="720" y="500" />
            </Array>
          </mxGeometry>
        </mxCell>
        <mxCell id="R3Bvoctj_jdyim1rGo82-28" style="edgeStyle=orthogonalEdgeStyle;rounded=0;orthogonalLoop=1;jettySize=auto;html=1;entryX=0.5;entryY=1;entryDx=0;entryDy=0;curved=1;exitX=0.5;exitY=0;exitDx=0;exitDy=0;" parent="1" source="Qa07ZEY8zx5-E_0PlGd2-22" target="Qa07ZEY8zx5-E_0PlGd2-4" edge="1">
          <mxGeometry relative="1" as="geometry">
            <Array as="points">
              <mxPoint x="690" y="440" />
              <mxPoint x="520" y="440" />
            </Array>
          </mxGeometry>
        </mxCell>
        <mxCell id="7gil-hiqsTWwfiF-RkSV-7" style="edgeStyle=orthogonalEdgeStyle;rounded=0;orthogonalLoop=1;jettySize=auto;html=1;curved=1;entryX=0;entryY=0.5;entryDx=0;entryDy=0;" parent="1" source="Qa07ZEY8zx5-E_0PlGd2-22" target="Qa07ZEY8zx5-E_0PlGd2-22" edge="1">
          <mxGeometry relative="1" as="geometry">
            <mxPoint x="660" y="500" as="targetPoint" />
            <Array as="points">
              <mxPoint x="700" y="540" />
              <mxPoint x="640" y="540" />
              <mxPoint x="640" y="500" />
            </Array>
          </mxGeometry>
        </mxCell>
        <mxCell id="Qa07ZEY8zx5-E_0PlGd2-22" value="&lt;font style=&quot;font-size: 18px;&quot;&gt;CV Mode&lt;/font&gt;" style="whiteSpace=wrap;html=1;rounded=0;" parent="1" vertex="1">
          <mxGeometry x="665" y="480" width="80" height="40" as="geometry" />
        </mxCell>
        <mxCell id="Qa07ZEY8zx5-E_0PlGd2-28" style="edgeStyle=orthogonalEdgeStyle;rounded=0;orthogonalLoop=1;jettySize=auto;html=1;entryX=0;entryY=0.5;entryDx=0;entryDy=0;curved=1;" parent="1" target="Qa07ZEY8zx5-E_0PlGd2-19" edge="1">
          <mxGeometry relative="1" as="geometry">
            <mxPoint x="360" y="410" as="sourcePoint" />
            <Array as="points">
              <mxPoint x="360" y="420" />
              <mxPoint x="290" y="420" />
              <mxPoint x="290" y="380" />
            </Array>
          </mxGeometry>
        </mxCell>
        <mxCell id="Qa07ZEY8zx5-E_0PlGd2-29" style="edgeStyle=orthogonalEdgeStyle;rounded=0;orthogonalLoop=1;jettySize=auto;html=1;curved=1;entryX=0.5;entryY=1;entryDx=0;entryDy=0;" parent="1" source="Qa07ZEY8zx5-E_0PlGd2-14" edge="1" target="Qa07ZEY8zx5-E_0PlGd2-14">
          <mxGeometry relative="1" as="geometry">
            <Array as="points">
              <mxPoint x="470" y="500" />
              <mxPoint x="470" y="540" />
              <mxPoint x="420" y="540" />
            </Array>
            <mxPoint x="470" y="520" as="targetPoint" />
          </mxGeometry>
        </mxCell>
        <mxCell id="Qa07ZEY8zx5-E_0PlGd2-30" value="&lt;div&gt;C&lt;sub&gt;0&lt;/sub&gt;=1&lt;/div&gt;&lt;div&gt;C&lt;sub&gt;1&lt;/sub&gt;=1&lt;/div&gt;&lt;div&gt;C&lt;sub&gt;2&lt;/sub&gt;=0&lt;br&gt;&lt;/div&gt;" style="text;html=1;align=center;verticalAlign=middle;whiteSpace=wrap;rounded=0;" parent="1" vertex="1">
          <mxGeometry x="384" y="430" width="30" height="50" as="geometry" />
        </mxCell>
        <mxCell id="Qa07ZEY8zx5-E_0PlGd2-31" value="&lt;div&gt;C&lt;sub&gt;0&lt;/sub&gt;=0&lt;/div&gt;" style="text;html=1;align=center;verticalAlign=middle;whiteSpace=wrap;rounded=0;" parent="1" vertex="1">
          <mxGeometry x="600" y="320" width="30" height="20" as="geometry" />
        </mxCell>
        <mxCell id="Qa07ZEY8zx5-E_0PlGd2-32" value="&lt;div&gt;C&lt;sub&gt;3&lt;/sub&gt;=0&lt;/div&gt;" style="text;html=1;align=center;verticalAlign=middle;whiteSpace=wrap;rounded=0;" parent="1" vertex="1">
          <mxGeometry x="260" y="378.5" width="30" height="20" as="geometry" />
        </mxCell>
        <mxCell id="Qa07ZEY8zx5-E_0PlGd2-33" value="&lt;div&gt;C&lt;sub&gt;3&lt;/sub&gt;=1&lt;/div&gt;" style="text;html=1;align=center;verticalAlign=middle;whiteSpace=wrap;rounded=0;" parent="1" vertex="1">
          <mxGeometry x="330" y="480" width="30" height="20" as="geometry" />
        </mxCell>
        <mxCell id="Qa07ZEY8zx5-E_0PlGd2-34" value="&lt;div&gt;C&lt;sub&gt;4&lt;/sub&gt;=0&lt;/div&gt;" style="text;html=1;align=center;verticalAlign=middle;whiteSpace=wrap;rounded=0;" parent="1" vertex="1">
          <mxGeometry x="435" y="540" width="30" height="20" as="geometry" />
        </mxCell>
        <mxCell id="Qa07ZEY8zx5-E_0PlGd2-35" value="&lt;div&gt;C&lt;sub&gt;4&lt;/sub&gt;=1&lt;/div&gt;" style="text;html=1;align=center;verticalAlign=middle;whiteSpace=wrap;rounded=0;" parent="1" vertex="1">
          <mxGeometry x="495" y="500" width="30" height="20" as="geometry" />
        </mxCell>
        <mxCell id="Qa07ZEY8zx5-E_0PlGd2-36" value="&lt;div&gt;C&lt;sub&gt;5&lt;/sub&gt;=0 AND C&lt;sub&gt;6&lt;/sub&gt;=0&lt;/div&gt;" style="text;html=1;align=center;verticalAlign=middle;whiteSpace=wrap;rounded=0;" parent="1" vertex="1">
          <mxGeometry x="630" y="540" width="100" height="20" as="geometry" />
        </mxCell>
        <mxCell id="R3Bvoctj_jdyim1rGo82-1" value="&lt;h1 style=&quot;margin-top: 0px;&quot;&gt;Other Signals&lt;br&gt;&lt;/h1&gt;&lt;ul&gt;&lt;li&gt;V&lt;sub&gt;tok&lt;/sub&gt;: valid data from ADC&lt;/li&gt;&lt;li&gt;rstz: start the process (different from power-on reset)&lt;/li&gt;&lt;li&gt;en: module enable signal&lt;/li&gt;&lt;li&gt;se: scan enable&lt;br&gt;&lt;/li&gt;&lt;/ul&gt;" style="text;html=1;whiteSpace=wrap;overflow=hidden;rounded=0;strokeColor=default;fillColor=default;" parent="1" vertex="1">
          <mxGeometry x="40" y="405" width="200" height="155" as="geometry" />
        </mxCell>
        <mxCell id="R3Bvoctj_jdyim1rGo82-3" value="C&lt;sub&gt;8&lt;/sub&gt;=1 AND C&lt;sub&gt;7&lt;/sub&gt;=1" style="text;html=1;align=center;verticalAlign=middle;whiteSpace=wrap;rounded=0;" parent="1" vertex="1">
          <mxGeometry x="390" y="242" width="129" height="30" as="geometry" />
        </mxCell>
        <mxCell id="R3Bvoctj_jdyim1rGo82-17" value="&lt;div&gt;C&lt;sub&gt;S&lt;/sub&gt;=0 OR C&lt;sub&gt;7&lt;/sub&gt;=0&lt;br&gt;&lt;/div&gt;" style="text;html=1;align=center;verticalAlign=middle;whiteSpace=wrap;rounded=0;" parent="1" vertex="1">
          <mxGeometry x="425" y="155" width="110" height="35" as="geometry" />
        </mxCell>
        <mxCell id="R3Bvoctj_jdyim1rGo82-26" value="&lt;div&gt;C&lt;sub&gt;0&lt;/sub&gt;=0&lt;/div&gt;" style="text;html=1;align=center;verticalAlign=middle;whiteSpace=wrap;rounded=0;" parent="1" vertex="1">
          <mxGeometry x="465" y="460" width="30" height="20" as="geometry" />
        </mxCell>
        <mxCell id="R3Bvoctj_jdyim1rGo82-27" value="&lt;div&gt;C&lt;sub&gt;0&lt;/sub&gt;=0&lt;/div&gt;" style="text;html=1;align=center;verticalAlign=middle;whiteSpace=wrap;rounded=0;" parent="1" vertex="1">
          <mxGeometry x="400" y="358.5" width="30" height="20" as="geometry" />
        </mxCell>
        <mxCell id="R3Bvoctj_jdyim1rGo82-30" value="&lt;div&gt;C&lt;sub&gt;0&lt;/sub&gt;=0&lt;/div&gt;" style="text;html=1;align=center;verticalAlign=middle;whiteSpace=wrap;rounded=0;" parent="1" vertex="1">
          <mxGeometry x="650" y="425" width="30" height="20" as="geometry" />
        </mxCell>
        <mxCell id="R3Bvoctj_jdyim1rGo82-33" value="&lt;h1 style=&quot;margin-top: 0px;&quot;&gt;Aditional Features&lt;/h1&gt;&lt;ul&gt;&lt;li&gt;&lt;div align=&quot;left&quot;&gt;Temperature control: if the temperature increases above T&lt;sub&gt;max&lt;/sub&gt; or below T&lt;sub&gt;min&lt;/sub&gt;,&amp;nbsp;&lt;/div&gt;&lt;div align=&quot;left&quot;&gt;it directly goes to Start to correct it&lt;/div&gt;&lt;/li&gt;&lt;li&gt;&lt;div align=&quot;left&quot;&gt;Continuous Recharging: if the voltage drops below V&lt;sub&gt;recharge&lt;/sub&gt;, the charging process&amp;nbsp;&lt;/div&gt;&lt;div align=&quot;left&quot;&gt;begins automatically again&lt;/div&gt;&lt;/li&gt;&lt;li&gt;Full reset: if the reset signal is ever to 1 (for all state but END), it goes directly to the IDLE state to restart the charging process&lt;/li&gt;&lt;/ul&gt;" style="text;html=1;whiteSpace=wrap;overflow=hidden;rounded=0;strokeColor=default;fillColor=default;" parent="1" vertex="1">
          <mxGeometry x="50" y="610" width="300" height="190" as="geometry" />
        </mxCell>
        <mxCell id="7gil-hiqsTWwfiF-RkSV-1" value="&lt;h1 style=&quot;margin-top: 0px;&quot;&gt;Notes&lt;/h1&gt;&lt;div&gt;&lt;ul&gt;&lt;li&gt;I&lt;sub&gt;end&lt;/sub&gt; is defined as 0.1C (10% of the nominal capacity)&lt;/li&gt;&lt;li&gt;V&lt;sub&gt;recharge&lt;/sub&gt; is calculated to be the voltage for which the state of charge (SoC) is 20%&lt;/li&gt;&lt;li&gt;The non compliance with the control signals will lead each state to IDLE (not represented in the diagram), and the non compliance with C&lt;sub&gt;0&lt;/sub&gt; will lead each stage to start for cool down (the exception is END). &lt;br&gt;&lt;/li&gt;&lt;/ul&gt;&lt;/div&gt;" style="text;html=1;whiteSpace=wrap;overflow=hidden;rounded=0;strokeColor=default;fillColor=default;" parent="1" vertex="1">
          <mxGeometry x="360" y="600" width="290" height="190" as="geometry" />
        </mxCell>
        <mxCell id="7gil-hiqsTWwfiF-RkSV-5" style="edgeStyle=orthogonalEdgeStyle;rounded=0;orthogonalLoop=1;jettySize=auto;html=1;entryX=0.308;entryY=0.038;entryDx=0;entryDy=0;entryPerimeter=0;curved=1;" parent="1" source="Qa07ZEY8zx5-E_0PlGd2-4" target="Qa07ZEY8zx5-E_0PlGd2-17" edge="1">
          <mxGeometry relative="1" as="geometry" />
        </mxCell>
        <mxCell id="7gil-hiqsTWwfiF-RkSV-6" value="&lt;div&gt;C&lt;sub&gt;1&lt;/sub&gt;=0&lt;/div&gt;" style="text;html=1;align=center;verticalAlign=middle;whiteSpace=wrap;rounded=0;" parent="1" vertex="1">
          <mxGeometry x="640" y="290" width="30" height="20" as="geometry" />
        </mxCell>
        <mxCell id="7gil-hiqsTWwfiF-RkSV-10" value="&lt;div&gt;C&lt;sub&gt;5&lt;/sub&gt;=1 OR C&lt;sub&gt;6&lt;/sub&gt;=1&lt;/div&gt;" style="text;html=1;align=center;verticalAlign=middle;whiteSpace=wrap;rounded=0;" parent="1" vertex="1">
          <mxGeometry x="720" y="430" width="90" height="20" as="geometry" />
        </mxCell>
        <mxCell id="OYRed6BsWh4tqV8TMah2-6" style="edgeStyle=orthogonalEdgeStyle;rounded=0;orthogonalLoop=1;jettySize=auto;html=1;exitX=0;exitY=1;exitDx=0;exitDy=0;curved=1;entryX=0.5;entryY=0;entryDx=0;entryDy=0;" parent="1" source="OYRed6BsWh4tqV8TMah2-8" target="OYRed6BsWh4tqV8TMah2-13" edge="1">
          <mxGeometry relative="1" as="geometry">
            <Array as="points">
              <mxPoint x="525" y="989" />
            </Array>
            <mxPoint x="530" y="1135" as="targetPoint" />
          </mxGeometry>
        </mxCell>
        <mxCell id="OYRed6BsWh4tqV8TMah2-7" style="edgeStyle=orthogonalEdgeStyle;rounded=0;orthogonalLoop=1;jettySize=auto;html=1;entryX=0.5;entryY=0;entryDx=0;entryDy=0;curved=1;" parent="1" source="OYRed6BsWh4tqV8TMah2-8" target="OYRed6BsWh4tqV8TMah2-18" edge="1">
          <mxGeometry relative="1" as="geometry" />
        </mxCell>
        <mxCell id="OYRed6BsWh4tqV8TMah2-8" value="&lt;font style=&quot;font-size: 18px;&quot;&gt;Start&lt;/font&gt;" style="ellipse;whiteSpace=wrap;html=1;" parent="1" vertex="1">
          <mxGeometry x="540" y="955" width="80" height="40" as="geometry" />
        </mxCell>
        <mxCell id="OYRed6BsWh4tqV8TMah2-9" value="&lt;div&gt;C&lt;sub&gt;0&lt;/sub&gt;=1&lt;/div&gt;&lt;div&gt;C&lt;sub&gt;1&lt;/sub&gt;=1&lt;/div&gt;&lt;div&gt;C&lt;sub&gt;2&lt;/sub&gt;=1&lt;br&gt;&lt;/div&gt;&lt;div&gt;C&lt;sub&gt;S&lt;/sub&gt;=1&lt;/div&gt;" style="text;html=1;align=center;verticalAlign=middle;whiteSpace=wrap;rounded=0;" parent="1" vertex="1">
          <mxGeometry x="380" y="960" width="30" height="70" as="geometry" />
        </mxCell>
        <mxCell id="OYRed6BsWh4tqV8TMah2-11" style="edgeStyle=orthogonalEdgeStyle;rounded=0;orthogonalLoop=1;jettySize=auto;html=1;" parent="1" source="OYRed6BsWh4tqV8TMah2-13" target="OYRed6BsWh4tqV8TMah2-22" edge="1">
          <mxGeometry relative="1" as="geometry" />
        </mxCell>
        <mxCell id="OYRed6BsWh4tqV8TMah2-12" style="edgeStyle=orthogonalEdgeStyle;rounded=0;orthogonalLoop=1;jettySize=auto;html=1;entryX=0.5;entryY=1;entryDx=0;entryDy=0;curved=1;" parent="1" source="OYRed6BsWh4tqV8TMah2-13" target="OYRed6BsWh4tqV8TMah2-8" edge="1">
          <mxGeometry relative="1" as="geometry">
            <Array as="points">
              <mxPoint x="580" y="1175" />
            </Array>
          </mxGeometry>
        </mxCell>
        <mxCell id="OYRed6BsWh4tqV8TMah2-13" value="&lt;font style=&quot;font-size: 18px;&quot;&gt;CC Mode&lt;/font&gt;" style="whiteSpace=wrap;html=1;rounded=0;" parent="1" vertex="1">
          <mxGeometry x="485" y="1155" width="80" height="40" as="geometry" />
        </mxCell>
        <mxCell id="OYRed6BsWh4tqV8TMah2-14" style="edgeStyle=orthogonalEdgeStyle;rounded=0;orthogonalLoop=1;jettySize=auto;html=1;curved=1;" parent="1" source="OYRed6BsWh4tqV8TMah2-15" edge="1">
          <mxGeometry relative="1" as="geometry">
            <Array as="points">
              <mxPoint x="780" y="970" />
              <mxPoint x="620" y="970" />
            </Array>
            <mxPoint x="620" y="970" as="targetPoint" />
          </mxGeometry>
        </mxCell>
        <mxCell id="OYRed6BsWh4tqV8TMah2-15" value="&lt;font style=&quot;font-size: 18px;&quot;&gt;End&lt;/font&gt;" style="ellipse;whiteSpace=wrap;html=1;" parent="1" vertex="1">
          <mxGeometry x="740" y="1035" width="80" height="40" as="geometry" />
        </mxCell>
        <mxCell id="OYRed6BsWh4tqV8TMah2-16" style="edgeStyle=orthogonalEdgeStyle;rounded=0;orthogonalLoop=1;jettySize=auto;html=1;entryX=0;entryY=0.5;entryDx=0;entryDy=0;curved=1;" parent="1" source="OYRed6BsWh4tqV8TMah2-18" target="OYRed6BsWh4tqV8TMah2-13" edge="1">
          <mxGeometry relative="1" as="geometry">
            <Array as="points">
              <mxPoint x="420" y="1175" />
            </Array>
          </mxGeometry>
        </mxCell>
        <mxCell id="OYRed6BsWh4tqV8TMah2-17" style="edgeStyle=orthogonalEdgeStyle;rounded=0;orthogonalLoop=1;jettySize=auto;html=1;entryX=0.5;entryY=1;entryDx=0;entryDy=0;curved=1;" parent="1" source="OYRed6BsWh4tqV8TMah2-18" target="OYRed6BsWh4tqV8TMah2-8" edge="1">
          <mxGeometry relative="1" as="geometry" />
        </mxCell>
        <mxCell id="OYRed6BsWh4tqV8TMah2-18" value="&lt;font style=&quot;font-size: 18px;&quot;&gt;TC Mode&lt;/font&gt;" style="whiteSpace=wrap;html=1;rounded=0;" parent="1" vertex="1">
          <mxGeometry x="380" y="1035" width="80" height="40" as="geometry" />
        </mxCell>
        <mxCell id="OYRed6BsWh4tqV8TMah2-19" style="edgeStyle=orthogonalEdgeStyle;rounded=0;orthogonalLoop=1;jettySize=auto;html=1;curved=1;entryX=0.5;entryY=1;entryDx=0;entryDy=0;" parent="1" source="OYRed6BsWh4tqV8TMah2-22" target="OYRed6BsWh4tqV8TMah2-15" edge="1">
          <mxGeometry relative="1" as="geometry">
            <Array as="points">
              <mxPoint x="780" y="1175" />
            </Array>
          </mxGeometry>
        </mxCell>
        <mxCell id="OYRed6BsWh4tqV8TMah2-20" style="edgeStyle=orthogonalEdgeStyle;rounded=0;orthogonalLoop=1;jettySize=auto;html=1;entryX=0.5;entryY=1;entryDx=0;entryDy=0;curved=1;" parent="1" source="OYRed6BsWh4tqV8TMah2-22" target="OYRed6BsWh4tqV8TMah2-8" edge="1">
          <mxGeometry relative="1" as="geometry">
            <Array as="points">
              <mxPoint x="700" y="1115" />
              <mxPoint x="580" y="1115" />
            </Array>
          </mxGeometry>
        </mxCell>
        <mxCell id="OYRed6BsWh4tqV8TMah2-21" style="edgeStyle=orthogonalEdgeStyle;rounded=0;orthogonalLoop=1;jettySize=auto;html=1;entryX=0.5;entryY=1;entryDx=0;entryDy=0;curved=1;" parent="1" source="OYRed6BsWh4tqV8TMah2-22" target="OYRed6BsWh4tqV8TMah2-22" edge="1">
          <mxGeometry relative="1" as="geometry">
            <mxPoint x="760" y="1245" as="targetPoint" />
            <Array as="points">
              <mxPoint x="760" y="1175" />
              <mxPoint x="760" y="1215" />
              <mxPoint x="700" y="1215" />
            </Array>
          </mxGeometry>
        </mxCell>
        <mxCell id="OYRed6BsWh4tqV8TMah2-22" value="&lt;font style=&quot;font-size: 18px;&quot;&gt;CV Mode&lt;/font&gt;" style="whiteSpace=wrap;html=1;rounded=0;" parent="1" vertex="1">
          <mxGeometry x="660" y="1155" width="80" height="40" as="geometry" />
        </mxCell>
        <mxCell id="OYRed6BsWh4tqV8TMah2-23" style="edgeStyle=orthogonalEdgeStyle;rounded=0;orthogonalLoop=1;jettySize=auto;html=1;entryX=0;entryY=0.5;entryDx=0;entryDy=0;curved=1;" parent="1" target="OYRed6BsWh4tqV8TMah2-18" edge="1">
          <mxGeometry relative="1" as="geometry">
            <mxPoint x="420" y="1085" as="sourcePoint" />
            <Array as="points">
              <mxPoint x="420" y="1095" />
              <mxPoint x="350" y="1095" />
              <mxPoint x="350" y="1055" />
            </Array>
          </mxGeometry>
        </mxCell>
        <mxCell id="OYRed6BsWh4tqV8TMah2-24" style="edgeStyle=orthogonalEdgeStyle;rounded=0;orthogonalLoop=1;jettySize=auto;html=1;curved=1;" parent="1" source="OYRed6BsWh4tqV8TMah2-13" edge="1">
          <mxGeometry relative="1" as="geometry">
            <Array as="points">
              <mxPoint x="600" y="1175" />
              <mxPoint x="600" y="1215" />
              <mxPoint x="530" y="1215" />
              <mxPoint x="530" y="1195" />
            </Array>
            <mxPoint x="530" y="1195" as="targetPoint" />
          </mxGeometry>
        </mxCell>
        <mxCell id="OYRed6BsWh4tqV8TMah2-25" value="&lt;div&gt;C&lt;sub&gt;0&lt;/sub&gt;=1&lt;/div&gt;&lt;div&gt;C&lt;sub&gt;1&lt;/sub&gt;=1&lt;/div&gt;&lt;div&gt;C&lt;sub&gt;2&lt;/sub&gt;=0&lt;/div&gt;&lt;div&gt;&lt;div&gt;C&lt;sub&gt;S&lt;/sub&gt;=1&lt;/div&gt;&lt;/div&gt;" style="text;html=1;align=center;verticalAlign=middle;whiteSpace=wrap;rounded=0;" parent="1" vertex="1">
          <mxGeometry x="490" y="1095" width="30" height="60" as="geometry" />
        </mxCell>
        <mxCell id="OYRed6BsWh4tqV8TMah2-27" value="&lt;div&gt;C&lt;sub&gt;3&lt;/sub&gt;=0&lt;/div&gt;" style="text;html=1;align=center;verticalAlign=middle;whiteSpace=wrap;rounded=0;" parent="1" vertex="1">
          <mxGeometry x="320" y="1053.5" width="30" height="20" as="geometry" />
        </mxCell>
        <mxCell id="OYRed6BsWh4tqV8TMah2-28" value="&lt;div&gt;C&lt;sub&gt;3&lt;/sub&gt;=1&lt;/div&gt;" style="text;html=1;align=center;verticalAlign=middle;whiteSpace=wrap;rounded=0;" parent="1" vertex="1">
          <mxGeometry x="410" y="1165" width="30" height="20" as="geometry" />
        </mxCell>
        <mxCell id="OYRed6BsWh4tqV8TMah2-29" value="&lt;div&gt;C&lt;sub&gt;4&lt;/sub&gt;=0&lt;/div&gt;" style="text;html=1;align=center;verticalAlign=middle;whiteSpace=wrap;rounded=0;" parent="1" vertex="1">
          <mxGeometry x="570" y="1215" width="30" height="20" as="geometry" />
        </mxCell>
        <mxCell id="OYRed6BsWh4tqV8TMah2-30" value="&lt;div&gt;C&lt;sub&gt;4&lt;/sub&gt;=1&lt;/div&gt;" style="text;html=1;align=center;verticalAlign=middle;whiteSpace=wrap;rounded=0;" parent="1" vertex="1">
          <mxGeometry x="620" y="1155" width="30" height="20" as="geometry" />
        </mxCell>
        <mxCell id="OYRed6BsWh4tqV8TMah2-31" value="&lt;div&gt;C&lt;sub&gt;5&lt;/sub&gt;=0 AND C&lt;sub&gt;6&lt;/sub&gt;=0&lt;/div&gt;" style="text;html=1;align=center;verticalAlign=middle;whiteSpace=wrap;rounded=0;" parent="1" vertex="1">
          <mxGeometry x="690" y="1215" width="100" height="20" as="geometry" />
        </mxCell>
        <mxCell id="OYRed6BsWh4tqV8TMah2-34" value="&lt;div&gt;C&lt;sub&gt;0&lt;/sub&gt;=0&lt;/div&gt;&lt;div&gt;C&lt;sub&gt;S&lt;/sub&gt;=0&lt;/div&gt;" style="text;html=1;align=center;verticalAlign=middle;whiteSpace=wrap;rounded=0;" parent="1" vertex="1">
          <mxGeometry x="580" y="1125" width="30" height="30" as="geometry" />
        </mxCell>
        <mxCell id="OYRed6BsWh4tqV8TMah2-35" value="&lt;div&gt;C&lt;sub&gt;0&lt;/sub&gt;=0&lt;/div&gt;&lt;div&gt;&lt;div&gt;C&lt;sub&gt;S&lt;/sub&gt;=0&lt;/div&gt;&lt;/div&gt;" style="text;html=1;align=center;verticalAlign=middle;whiteSpace=wrap;rounded=0;" parent="1" vertex="1">
          <mxGeometry x="465" y="1020" width="30" height="33.5" as="geometry" />
        </mxCell>
        <mxCell id="OYRed6BsWh4tqV8TMah2-36" value="&lt;div&gt;C&lt;sub&gt;0&lt;/sub&gt;=0&lt;/div&gt;&lt;div&gt;C&lt;sub&gt;S&lt;/sub&gt;=0&lt;/div&gt;" style="text;html=1;align=center;verticalAlign=middle;whiteSpace=wrap;rounded=0;" parent="1" vertex="1">
          <mxGeometry x="700" y="1120" width="30" height="35" as="geometry" />
        </mxCell>
        <mxCell id="OYRed6BsWh4tqV8TMah2-37" style="edgeStyle=orthogonalEdgeStyle;rounded=0;orthogonalLoop=1;jettySize=auto;html=1;entryX=0;entryY=0.5;entryDx=0;entryDy=0;curved=1;" parent="1" source="OYRed6BsWh4tqV8TMah2-8" target="OYRed6BsWh4tqV8TMah2-15" edge="1">
          <mxGeometry relative="1" as="geometry">
            <Array as="points">
              <mxPoint x="680" y="990" />
              <mxPoint x="680" y="1055" />
            </Array>
          </mxGeometry>
        </mxCell>
        <mxCell id="OYRed6BsWh4tqV8TMah2-38" value="&lt;div&gt;C&lt;sub&gt;1&lt;/sub&gt;=0&lt;/div&gt;" style="text;html=1;align=center;verticalAlign=middle;whiteSpace=wrap;rounded=0;" parent="1" vertex="1">
          <mxGeometry x="690" y="1055" width="30" height="20" as="geometry" />
        </mxCell>
        <mxCell id="OYRed6BsWh4tqV8TMah2-39" value="&lt;div&gt;C&lt;sub&gt;5&lt;/sub&gt;=1 OR C&lt;sub&gt;6&lt;/sub&gt;=1&lt;/div&gt;" style="text;html=1;align=center;verticalAlign=middle;whiteSpace=wrap;rounded=0;" parent="1" vertex="1">
          <mxGeometry x="780" y="1120" width="90" height="20" as="geometry" />
        </mxCell>
        <mxCell id="OYRed6BsWh4tqV8TMah2-40" value="&lt;h1 style=&quot;margin-top: 0px;&quot;&gt;Conditions&lt;/h1&gt;&lt;ul&gt;&lt;li&gt;C&lt;sub&gt;0&lt;/sub&gt;: T&lt;sub&gt;min&lt;/sub&gt;≤T&lt;sub&gt;bat&lt;/sub&gt;≤T&lt;sub&gt;max&lt;/sub&gt;&lt;/li&gt;&lt;li&gt;C&lt;sub&gt;1&lt;/sub&gt;: V&amp;lt;4.2&lt;i&gt;V&lt;/i&gt;&lt;/li&gt;&lt;li&gt;C&lt;sub&gt;2&lt;/sub&gt;: V&amp;lt;V&lt;sub&gt;cutoff&lt;/sub&gt;&lt;/li&gt;&lt;li&gt;C&lt;sub&gt;3&lt;/sub&gt;: V&amp;gt;V&lt;sub&gt;cutoff&lt;/sub&gt;&lt;/li&gt;&lt;li&gt;C&lt;sub&gt;4&lt;/sub&gt;: V=V&lt;sub&gt;preset&lt;/sub&gt;&lt;/li&gt;&lt;li&gt;C&lt;sub&gt;5&lt;/sub&gt;: t&lt;sub&gt;max&lt;/sub&gt;≤t&lt;sub&gt;preset&lt;/sub&gt;&lt;/li&gt;&lt;li&gt;C&lt;sub&gt;6&lt;/sub&gt;: I&amp;lt;I&lt;sub&gt;end&lt;/sub&gt;&lt;/li&gt;&lt;li&gt;C&lt;sub&gt;7&lt;/sub&gt;: V&amp;lt;V&lt;sub&gt;recharge&lt;/sub&gt;&lt;/li&gt;&lt;li&gt;C&lt;sub&gt;S&lt;/sub&gt;: rstz=1 &amp;amp;&amp;amp; en=1 &amp;amp;&amp;amp; vtok=1&lt;br&gt;&lt;/li&gt;&lt;/ul&gt;" style="text;html=1;whiteSpace=wrap;overflow=hidden;rounded=0;strokeColor=default;fillColor=default;" parent="1" vertex="1">
          <mxGeometry x="95" y="945" width="210" height="220" as="geometry" />
        </mxCell>
        <mxCell id="OYRed6BsWh4tqV8TMah2-44" value="&lt;div&gt;&lt;div&gt;C&lt;sub&gt;S&lt;/sub&gt;=0&lt;/div&gt;&lt;/div&gt;&lt;div&gt;C&lt;sub&gt;7&lt;/sub&gt;=1&lt;/div&gt;" style="text;html=1;align=center;verticalAlign=middle;whiteSpace=wrap;rounded=0;" parent="1" vertex="1">
          <mxGeometry x="730" y="950" width="30" height="35" as="geometry" />
        </mxCell>
        <mxCell id="OYRed6BsWh4tqV8TMah2-49" style="edgeStyle=orthogonalEdgeStyle;rounded=0;orthogonalLoop=1;jettySize=auto;html=1;entryX=0;entryY=0.5;entryDx=0;entryDy=0;curved=1;endArrow=none;endFill=0;startArrow=classic;startFill=1;" parent="1" source="OYRed6BsWh4tqV8TMah2-8" target="OYRed6BsWh4tqV8TMah2-8" edge="1">
          <mxGeometry relative="1" as="geometry">
            <Array as="points">
              <mxPoint x="580" y="935" />
              <mxPoint x="520" y="935" />
              <mxPoint x="520" y="975" />
            </Array>
          </mxGeometry>
        </mxCell>
        <mxCell id="OYRed6BsWh4tqV8TMah2-50" value="&lt;div&gt;C&lt;sub&gt;S&lt;/sub&gt;=0&lt;/div&gt;&lt;div&gt;C&lt;sub&gt;7&lt;/sub&gt;=0&lt;/div&gt;" style="text;html=1;align=center;verticalAlign=middle;whiteSpace=wrap;rounded=0;" parent="1" vertex="1">
          <mxGeometry x="489" y="930" width="30" height="30" as="geometry" />
        </mxCell>
        <mxCell id="OYRed6BsWh4tqV8TMah2-51" style="edgeStyle=orthogonalEdgeStyle;rounded=0;orthogonalLoop=1;jettySize=auto;html=1;entryX=1;entryY=0.5;entryDx=0;entryDy=0;curved=1;" parent="1" source="OYRed6BsWh4tqV8TMah2-15" target="OYRed6BsWh4tqV8TMah2-15" edge="1">
          <mxGeometry relative="1" as="geometry">
            <Array as="points">
              <mxPoint x="780" y="1015" />
              <mxPoint x="840" y="1015" />
              <mxPoint x="840" y="1055" />
            </Array>
          </mxGeometry>
        </mxCell>
        <mxCell id="OYRed6BsWh4tqV8TMah2-52" value="&lt;div&gt;C&lt;sub&gt;7&lt;/sub&gt;=1&lt;/div&gt;" style="text;html=1;align=center;verticalAlign=middle;whiteSpace=wrap;rounded=0;" parent="1" vertex="1">
          <mxGeometry x="840" y="1020" width="30" height="20" as="geometry" />
        </mxCell>
        <mxCell id="FENF5lnJM81x7ZP91x9k-1" value="&lt;div&gt;C&lt;sub&gt;S&lt;/sub&gt;=0&lt;/div&gt;" style="text;html=1;align=center;verticalAlign=middle;whiteSpace=wrap;rounded=0;" vertex="1" parent="1">
          <mxGeometry x="400" y="385" width="30" height="20" as="geometry" />
        </mxCell>
        <mxCell id="FENF5lnJM81x7ZP91x9k-7" style="edgeStyle=orthogonalEdgeStyle;rounded=0;orthogonalLoop=1;jettySize=auto;html=1;entryX=0.5;entryY=1;entryDx=0;entryDy=0;curved=1;" edge="1" parent="1" source="FENF5lnJM81x7ZP91x9k-3" target="Qa07ZEY8zx5-E_0PlGd2-4">
          <mxGeometry relative="1" as="geometry">
            <Array as="points">
              <mxPoint x="570" y="430" />
              <mxPoint x="520" y="430" />
            </Array>
          </mxGeometry>
        </mxCell>
        <mxCell id="FENF5lnJM81x7ZP91x9k-10" style="edgeStyle=orthogonalEdgeStyle;rounded=0;orthogonalLoop=1;jettySize=auto;html=1;entryX=0;entryY=0.5;entryDx=0;entryDy=0;" edge="1" parent="1" source="FENF5lnJM81x7ZP91x9k-3" target="Qa07ZEY8zx5-E_0PlGd2-22">
          <mxGeometry relative="1" as="geometry" />
        </mxCell>
        <mxCell id="FENF5lnJM81x7ZP91x9k-3" value="&lt;font style=&quot;font-size: 18px;&quot;&gt;Transit&lt;/font&gt;" style="whiteSpace=wrap;html=1;rounded=0;" vertex="1" parent="1">
          <mxGeometry x="535" y="480" width="80" height="40" as="geometry" />
        </mxCell>
        <mxCell id="FENF5lnJM81x7ZP91x9k-6" value="&lt;div&gt;C&lt;sub&gt;S&lt;/sub&gt;=0&lt;/div&gt;" style="text;html=1;align=center;verticalAlign=middle;whiteSpace=wrap;rounded=0;" vertex="1" parent="1">
          <mxGeometry x="465" y="440" width="30" height="20" as="geometry" />
        </mxCell>
        <mxCell id="FENF5lnJM81x7ZP91x9k-8" value="&lt;div&gt;C&lt;sub&gt;S&lt;/sub&gt;=0&lt;/div&gt;" style="text;html=1;align=center;verticalAlign=middle;whiteSpace=wrap;rounded=0;" vertex="1" parent="1">
          <mxGeometry x="530" y="440" width="30" height="20" as="geometry" />
        </mxCell>
        <mxCell id="FENF5lnJM81x7ZP91x9k-9" value="&lt;div&gt;C&lt;sub&gt;0&lt;/sub&gt;=0&lt;/div&gt;" style="text;html=1;align=center;verticalAlign=middle;whiteSpace=wrap;rounded=0;" vertex="1" parent="1">
          <mxGeometry x="530" y="460" width="30" height="20" as="geometry" />
        </mxCell>
        <mxCell id="FENF5lnJM81x7ZP91x9k-12" value="&lt;div&gt;C&lt;sub&gt;8&lt;/sub&gt;=1&lt;/div&gt;" style="text;html=1;align=center;verticalAlign=middle;whiteSpace=wrap;rounded=0;" vertex="1" parent="1">
          <mxGeometry x="620" y="480" width="30" height="20" as="geometry" />
        </mxCell>
        <mxCell id="FENF5lnJM81x7ZP91x9k-13" value="&lt;div&gt;C&lt;sub&gt;S&lt;/sub&gt;=0&lt;/div&gt;" style="text;html=1;align=center;verticalAlign=middle;whiteSpace=wrap;rounded=0;" vertex="1" parent="1">
          <mxGeometry x="650" y="445" width="30" height="20" as="geometry" />
        </mxCell>
        <mxCell id="FENF5lnJM81x7ZP91x9k-14" value="&lt;div&gt;C&lt;sub&gt;7&lt;/sub&gt;=0&lt;/div&gt;" style="text;html=1;align=center;verticalAlign=middle;whiteSpace=wrap;rounded=0;" vertex="1" parent="1">
          <mxGeometry x="720" y="325" width="30" height="20" as="geometry" />
        </mxCell>
      </root>
    </mxGraphModel>
  </diagram>
</mxfile>
